<svg xmlns="http://www.w3.org/2000/svg" viewBox="0 0 338.7 99.5">
   <path fill="#2C3331"
      d="M0 65.8V32l1.4-.7c.8-.3 2.1-.7 2.9-.8 1.2-.2 1.7 0 4 .8a18.6 18.6 0 0 1 3.5 1.7l2.3 1c5.9 3 6.5 3.1 9 3.1 1.4 0 2.6.2 2.8.3.5.3 5.4-.8 9.3-2 5-1.7 14.5-7 20-11.2 2.2-1.6 4.4-2.9 7-4 3.3-1.2 5.8-2.4 12.8-6l8-4c4-2 7-3.6 10-5.7 4-2.7 6.7-3.7 8.5-3.1.8.2 1.2.2 2.5-.4 2-.9 3.5-1.1 4.3-.7.7.4 3.1.6 9 .6 2.7 0 5.2.2 5.5.3.3.1 1 0 1.9-.5L126 0l1.4.6c4.4 1.9 10.5 5.3 17.8 10 2.7 1.8 6.9 4.3 11.6 7l7 4.3a61.8 61.8 0 0 0 10.8 5.8 149.2 149.2 0 0 0 21.2 9.3l11.6 4.4 7.3 2.8c5 2.3 9.3 3.5 13 3.6 1.6 0 4 .2 5.4.4 2.5.3 2.5.3 3.9-.4 1.2-.6 1.7-.7 4.3-.7 1.7 0 3 0 3.2.2a1164.3 1164.3 0 0 1 4.8 1.1c.8.2 2 .8 3.1 1.6l1.9 1.2 1.2-.5a18 18 0 0 1 3.7-.6c1.5-.2 3-.4 3.4-.6 1.8-.7 4.4-1.3 6.7-1.4 2.2-.2 2.6-.3 3.6-1a21.6 21.6 0 0 1 6.4-3.1 51 51 0 0 1 13.3-5c1.8-.4 4.7-.4 5.7 0a579 579 0 0 1 13.1 4 87.4 87.4 0 0 0 9.4 4.3 8 8 0 0 1 1.8 1.1 7 7 0 0 0 4.2 2c.6 0 1.7.2 2.3.5 1 .4 2 .6 5 .7l4.1.4c.4.2.5 1.6.5 23.9v23.6H0Z" />
</svg>